<mxfile host="app.diagrams.net" agent="Mozilla/5.0 (X11; Linux x86_64; rv:131.0) Gecko/20100101 Firefox/131.0" version="24.7.12">
  <diagram name="Page-1" id="FRvvaF8NKtqmv-qgtZw7">
    <mxGraphModel dx="710" dy="1174" grid="0" gridSize="10" guides="1" tooltips="1" connect="1" arrows="1" fold="1" page="0" pageScale="1" pageWidth="827" pageHeight="1169" math="0" shadow="0">
      <root>
        <mxCell id="0" />
        <mxCell id="1" parent="0" />
        <mxCell id="PjNXBBbHARn_HDo8mcbn-6" style="edgeStyle=none;curved=1;rounded=0;orthogonalLoop=1;jettySize=auto;html=1;exitX=0.5;exitY=1;exitDx=0;exitDy=0;entryX=0.5;entryY=0;entryDx=0;entryDy=0;fontSize=12;startSize=8;endSize=8;" edge="1" parent="1" source="PjNXBBbHARn_HDo8mcbn-1" target="PjNXBBbHARn_HDo8mcbn-3">
          <mxGeometry relative="1" as="geometry" />
        </mxCell>
        <mxCell id="PjNXBBbHARn_HDo8mcbn-1" value="" style="rounded=0;whiteSpace=wrap;html=1;" vertex="1" parent="1">
          <mxGeometry x="37" y="-114" width="74" height="78" as="geometry" />
        </mxCell>
        <mxCell id="PjNXBBbHARn_HDo8mcbn-2" value="r1-naotheu" style="text;html=1;align=center;verticalAlign=middle;whiteSpace=wrap;rounded=0;fontSize=16;" vertex="1" parent="1">
          <mxGeometry x="166" y="-90" width="95" height="30" as="geometry" />
        </mxCell>
        <mxCell id="PjNXBBbHARn_HDo8mcbn-3" value="" style="rounded=0;whiteSpace=wrap;html=1;" vertex="1" parent="1">
          <mxGeometry x="37" y="118" width="74" height="78" as="geometry" />
        </mxCell>
        <mxCell id="PjNXBBbHARn_HDo8mcbn-4" value="r2-2nmt23" style="text;html=1;align=center;verticalAlign=middle;whiteSpace=wrap;rounded=0;fontSize=16;" vertex="1" parent="1">
          <mxGeometry x="166" y="138" width="95" height="30" as="geometry" />
        </mxCell>
        <mxCell id="PjNXBBbHARn_HDo8mcbn-7" value="UPDATE prev=r1-naotheu" style="text;html=1;align=center;verticalAlign=middle;whiteSpace=wrap;rounded=0;fontSize=16;" vertex="1" parent="1">
          <mxGeometry x="100" y="18" width="197" height="30" as="geometry" />
        </mxCell>
      </root>
    </mxGraphModel>
  </diagram>
</mxfile>
